<!-- Generated by IcoMoon.io -->
<svg version="1.1" xmlns="http://www.w3.org/2000/svg" width="1024" height="1024" viewBox="0 0 1024 1024">
<title></title>
<g id="icomoon-ignore">
</g>
<path fill="#000" d="M512 0c-282.8 0-512 229.2-512 512s229.2 512 512 512c282.8 0 512-229.2 512-512s-229.2-512-512-512zM765.6 492.2c-5 12-16.6 19.8-29.6 19.8h-128v192c0 35.34-28.66 64-64 64h-64c-35.34 0-64-28.66-64-64v-192h-128c-13 0-24.6-7.8-29.6-19.8s-2.2-25.6 7-34.8l224-224c12.496-12.496 32.76-12.496 45.24 0l224 224c9.16 9.2 11.96 22.8 6.96 34.8z"></path>
</svg>
