<!-- Generated by IcoMoon.io -->
<svg version="1.1" xmlns="http://www.w3.org/2000/svg" width="1024" height="1024" viewBox="0 0 1024 1024">
<title></title>
<g id="icomoon-ignore">
</g>
<path fill="#000" d="M512 1024c282.8 0 512-229.2 512-512s-229.2-512-512-512c-282.8 0-512 229.2-512 512s229.2 512 512 512zM258.4 531.8c5-12 16.6-19.8 29.6-19.8h128v-192c0-35.34 28.66-64 64-64h64c35.34 0 64 28.66 64 64v192h128c12.938 0 24.62 7.782 29.56 19.75 4.968 11.968 2.218 25.72-6.938 34.88l-224 224c-12.496 12.496-32.76 12.496-45.24 0l-224-224c-9.182-9.23-11.982-22.83-6.982-34.83z"></path>
</svg>
