<!-- Generated by IcoMoon.io -->
<svg version="1.1" xmlns="http://www.w3.org/2000/svg" width="1280" height="1024" viewBox="0 0 1280 1024">
<title></title>
<g id="icomoon-ignore">
</g>
<path fill="#000" d="M192.4 400.2c-0.26-5.4-0.4-10.8-0.4-16.2 0-176.8 143.2-320 320-320 118.6 0 222 64.5 277.4 160.4 30.4-22.2 67.2-32.4 106.6-32.4 106 0 192 84.2 192 192 0 24.4-4.6 47.6-12.8 69.2 116.8 23.6 204.8 127 204.8 250.8 0 141.4-114.6 256-256 256h-736c-159.060 0-288-129-288-288 0-125.6 80.34-232.4 192.4-271.8z"></path>
</svg>
