<!-- Generated by IcoMoon.io -->
<svg version="1.1" xmlns="http://www.w3.org/2000/svg" width="768" height="1024" viewBox="0 0 768 1024">
<title></title>
<g id="icomoon-ignore">
</g>
<path d="M32 648.186c0-146.4 204.6-459.34 301.8-599.6 24.6-35.43 75.8-35.43 100.4 0 97.2 140.26 301.8 453.2 301.8 599.6 0 196.2-157.6 353.8-352 353.8s-352-157.6-352-353.8zM224 648.186c0-15.8-14.4-32-32-32-17.68 0-32 16.2-32 32 0 125.6 100.2 225.8 224 225.8 17.6 0 32-14.4 32-32s-14.4-32-32-32c-88.4 0-160-71.6-160-161.8z"></path>
</svg>
