<!-- Generated by IcoMoon.io -->
<svg version="1.1" xmlns="http://www.w3.org/2000/svg" width="1152" height="1024" viewBox="0 0 1152 1024">
<title></title>
<g id="icomoon-ignore">
</g>
<path d="M559.225 320.8c5.6-0.6 11.2-0.8 16.8-0.8 106 0 192 84.2 192 192 0 106-86 192-192 192-107.8 0-192-86-192-192 0-5.6 0.2-11.2 0.8-16.8 18.6 9 40.2 16.8 63.2 16.8 70.6 0 128-57.4 128-128 0-23-7.8-44.6-16.8-63.2zM961.225 225.2c93.6 86.8 156.2 189 185.8 262.2 6.6 15.8 6.6 33.4 0 49.2-29.6 71.4-92.2 173.6-185.8 262.2-94.2 87.6-223.6 161.2-385.2 161.2s-291-73.6-385.16-161.2c-93.6-88.6-156.16-190.8-185.918-262.2-6.563-15.8-6.563-33.4 0-49.2 29.758-73.2 92.318-175.4 185.918-262.2 94.16-87.52 223.56-161.2 385.16-161.2s291 73.68 385.2 161.2v0zM576.025 224c-159 0-288 129-288 288s129 288 288 288c159 0 288-129 288-288s-129-288-288-288z"></path>
</svg>
