<!-- Generated by IcoMoon.io -->
<svg version="1.1" xmlns="http://www.w3.org/2000/svg" width="1024" height="1024" viewBox="0 0 1024 1024">
<title></title>
<g id="icomoon-ignore">
</g>
<path fill="#000" d="M0 512c0 282.8 229.2 512 512 512s512-229.2 512-512c0-282.8-229.2-512-512-512s-512 229.2-512 512zM414.6 620.8l-153.2-294.6c-12.2-23.6-3-52.6 20.4-64.8 23.6-12.2 52.6-3 64.8 20.4l153.2 294.8c4-0.4 8-2.4 14-2.4 68.8 0 128 59.2 128 129.8s-59.2 128-128 128c-72.4 0-129.8-57.4-129.8-128 0-31.8 11.6-60.8 30.6-83.2v0z"></path>
</svg>
