<!-- Generated by IcoMoon.io -->
<svg version="1.1" xmlns="http://www.w3.org/2000/svg" width="1024" height="1024" viewBox="0 0 1024 1024">
<title></title>
<g id="icomoon-ignore">
</g>
<path fill="#000" d="M352 512c0-88.4 71.6-160 160-160s160 71.6 160 160c0 88.4-71.6 160-160 160s-160-71.6-160-160zM512 0c35.4 0 64 28.66 64 64v69.3c160.8 26.98 287.8 153.9 314.6 314.7h69.4c35.4 0 64 28.6 64 64s-28.6 64-64 64h-69.4c-26.8 160.8-153.8 287.8-314.6 314.6v69.4c0 35.4-28.6 64-64 64s-64-28.6-64-64v-69.4c-160.8-26.8-287.72-153.8-314.7-314.6h-69.3c-35.34 0-64-28.6-64-64s28.66-64 64-64h69.3c26.98-160.8 153.9-287.72 314.7-314.7v-69.3c0-35.34 28.6-64 64-64zM256 512c0 141.4 114.6 256 256 256s256-114.6 256-256c0-141.4-114.6-256-256-256s-256 114.6-256 256z"></path>
</svg>
