<!-- Generated by IcoMoon.io -->
<svg version="1.1" xmlns="http://www.w3.org/2000/svg" width="768" height="768" viewBox="0 0 768 768">
<title></title>
<g id="icomoon-ignore">
</g>
<path fill="#000" d="M116.343 273.631l39.36 59.2c-17.12 33.42-27.154 72.908-27.154 114.74 0 47.055 12.695 91.145 34.848 129.032l-0.655-1.211h443.52c21.508-36.682 34.21-80.782 34.21-127.848 0-141.385-114.615-256-256-256-41.75 0-81.164 9.994-115.983 27.72l1.453-0.671-59.2-39.36c48.838-31.747 108.581-50.625 172.734-50.625 176.731 0 320 143.269 320 320 0 58.418-15.653 113.179-42.995 160.319l0.821-1.534c-11.207 19.156-31.625 31.854-55.019 32h-443.221c-0.076 0-0.165 0.001-0.254 0.001-23.564 0-44.154-12.735-55.262-31.699l-0.163-0.302c-26.948-45.893-42.863-101.081-42.863-159.985 0-64.722 19.215-124.957 52.251-175.31l-0.748 1.214z"></path>
<path fill="#000" d="M429.623 492.511c-11.584 11.596-27.594 18.77-45.28 18.77s-33.696-7.174-45.28-18.769l-0.001-0.001-181.12-271.68 271.68 181.12c11.596 11.585 18.77 27.594 18.77 45.28s-7.174 33.696-18.769 45.28l-0.001 0.001z"></path>
</svg>
