<!-- Generated by IcoMoon.io -->
<svg version="1.1" xmlns="http://www.w3.org/2000/svg" width="1024" height="1024" viewBox="0 0 1024 1024">
<title></title>
<g id="icomoon-ignore">
</g>
<path d="M1000.6 887.345l-239.4-239.4c54.44-80.82 81.3-181.8 66.92-289.4-24.52-183.020-174.52-331.96-357.72-355.154-272.38-34.466-501.42 194.574-466.952 466.954 23.2 183.28 172.16 333.4 355.2 357.8 107.6 14.378 208.6-12.472 289.4-66.92l239.4 239.4c31.24 31.24 81.9 31.24 113.14 0 31.212-31.28 31.212-82.080 0.012-113.28zM158.2 415.945c0-141.16 114.84-256 256-256s256 114.84 256 256c0 141.16-114.84 256-256 256s-256-114.8-256-256z"></path>
</svg>
