<!-- Generated by IcoMoon.io -->
<svg version="1.1" xmlns="http://www.w3.org/2000/svg" width="768" height="768" viewBox="0 0 768 768">
<title></title>
<g id="icomoon-ignore">
</g>
<path fill="#000" d="M384 288c52.8 0 96 43.2 96 96s-43.2 96-96 96-96-43.2-96-96 43.2-96 96-96zM384 224c-88.32 0-160 71.68-160 160s71.68 160 160 160 160-71.68 160-160-71.68-160-160-160v0zM64 416h64c17.6 0 32-14.4 32-32s-14.4-32-32-32h-64c-17.6 0-32 14.4-32 32s14.4 32 32 32zM640 416h64c17.6 0 32-14.4 32-32s-14.4-32-32-32h-64c-17.6 0-32 14.4-32 32s14.4 32 32 32zM352 64v64c0 17.6 14.4 32 32 32s32-14.4 32-32v-64c0-17.6-14.4-32-32-32s-32 14.4-32 32zM352 640v64c0 17.6 14.4 32 32 32s32-14.4 32-32v-64c0-17.6-14.4-32-32-32s-32 14.4-32 32zM191.68 146.56c-12.48-12.48-32.96-12.48-45.12 0-12.48 12.48-12.48 32.96 0 45.12l33.92 33.92c12.48 12.48 32.96 12.48 45.12 0s12.48-32.96 0-45.12l-33.92-33.92zM587.52 542.4c-12.48-12.48-32.96-12.48-45.12 0-12.48 12.48-12.48 32.96 0 45.12l33.92 33.92c12.48 12.48 32.96 12.48 45.12 0 12.48-12.48 12.48-32.96 0-45.12l-33.92-33.92zM621.44 191.68c12.48-12.48 12.48-32.96 0-45.12-12.48-12.48-32.96-12.48-45.12 0l-33.92 33.92c-12.48 12.48-12.48 32.96 0 45.12s32.96 12.48 45.12 0l33.92-33.92zM225.6 587.52c12.48-12.48 12.48-32.96 0-45.12-12.48-12.48-32.96-12.48-45.12 0l-33.92 33.92c-12.48 12.48-12.48 32.96 0 45.12s32.96 12.48 45.12 0l33.92-33.92z"></path>
</svg>
