<!-- Generated by IcoMoon.io -->
<svg version="1.1" xmlns="http://www.w3.org/2000/svg" width="1024" height="1024" viewBox="0 0 1024 1024">
<title></title>
<g id="icomoon-ignore">
</g>
<path fill="#000" d="M489.344 153.373c5.794-5.808 13.805-9.401 22.656-9.401s16.862 3.593 22.655 9.401l96.001 96.001c5.798 5.798 9.384 13.808 9.384 22.656 0 17.695-14.345 32.040-32.040 32.040-8.848 0-16.858-3.586-22.656-9.384v0l-41.344-41.408v114.752c0 17.673-14.327 32-32 32s-32-14.327-32-32v0-114.752l-41.344 41.408c-5.798 5.798-13.808 9.384-22.656 9.384-17.695 0-32.040-14.345-32.040-32.040 0-8.848 3.586-16.858 9.384-22.656v0l96-96zM149.952 357.981c5.791-5.789 13.789-9.369 22.624-9.369s16.833 3.58 22.624 9.369l90.496 90.496c5.558 5.749 8.983 13.59 8.983 22.231 0 17.673-14.327 32-32 32-8.641 0-16.482-3.425-22.24-8.991l-90.487-90.487c-5.789-5.791-9.369-13.789-9.369-22.624s3.58-16.833 9.369-22.624v0zM874.048 357.981c5.789 5.791 9.369 13.789 9.369 22.624s-3.58 16.833-9.369 22.624l-90.496 90.496c-5.827 6.027-13.985 9.769-23.017 9.769-17.673 0-32-14.327-32-32 0-9.032 3.742-17.19 9.76-23.009l90.505-90.505c5.791-5.789 13.789-9.369 22.624-9.369s16.833 3.58 22.624 9.369v0zM749.376 816.029c11.782-28.366 18.624-61.312 18.624-95.857 0-141.385-114.615-256-256-256s-256 114.615-256 256c0 34.545 6.842 67.492 19.246 97.559l-0.622-1.702h-242.624c-17.673 0-32 14.327-32 32s14.327 32 32 32v0h960c17.673 0 32-14.327 32-32s-14.327-32-32-32v0h-242.56zM0 720.029c0-17.673 14.327-32 32-32v0h128c17.673 0 32 14.327 32 32s-14.327 32-32 32v0h-128c-17.673 0-32-14.327-32-32v0zM832 720.029c0-17.673 14.327-32 32-32v0h128c17.673 0 32 14.327 32 32s-14.327 32-32 32v0h-128c-17.673 0-32-14.327-32-32v0z"></path>
</svg>
