<!-- Generated by IcoMoon.io -->
<svg version="1.1" xmlns="http://www.w3.org/2000/svg" width="1024" height="1024" viewBox="0 0 1024 1024">
<title></title>
<g id="icomoon-ignore">
</g>
<path d="M320 645.8v-37.8c0-17.4-14.4-32-32-32s-32 14.6-32 32v37.76c-37.2 13.24-64 48.44-64 90.24 0 53 43 96 96 96s96-43 96-96c0-41.8-26.8-77-64-90.2zM512 224c0-123.76-100.26-224-224-224s-224 100.26-224 224v333c-39.5 49.5-64 111-64 179 0 159 129 288 288 288s288-129 288-288c0-66.2-24.5-129.76-64-179v-333zM288 896c-88.26 0-160-71.76-160-160 0-51 24.5-97.76 64-127.5v-384.6c0-53 43-96 96-96s96 43 96 96v384.2c39.5 29.5 64 76.76 64 127.76 0 88.34-71.8 160.14-160 160.14zM832 0c-105.76 0-192 86.26-192 192s86.26 192 192 192 192-86.26 192-192-86.2-192-192-192zM832 256c-35.5 0-64-28.5-64-64s28.5-64 64-64 64 28.5 64 64-28.4 64-64 64z"></path>
</svg>
