<!-- Generated by IcoMoon.io -->
<svg version="1.1" xmlns="http://www.w3.org/2000/svg" width="1024" height="1024" viewBox="0 0 1024 1024">
<title></title>
<g id="icomoon-ignore">
</g>
<path d="M64 384h640c105.88 0 192-86.12 192-192s-86.12-192-192-192h-64c-35.38 0-64 28.62-64 64s28.62 64 64 64h64c35.32 0 64 28.68 64 64s-28.68 64-64 64h-640c-35.38 0-64 28.6-64 64s28.62 64 64 64zM320 640h-256c-35.38 0-64 28.62-64 64s28.62 64 64 64h256c35.32 0 64 28.68 64 64s-28.68 64-64 64h-64c-35.38 0-64 28.62-64 64s28.62 64 64 64h64c105.88 0 192-86.12 192-192s-86.2-192-192-192zM832 448h-768c-35.38 0-64 28.6-64 64s28.62 64 64 64h768c35.32 0 64 28.68 64 64s-28.68 64-64 64h-64c-35.38 0-64 28.62-64 64s28.62 64 64 64h64c105.88 0 192-86.12 192-192s-86.2-192-192-192z"></path>
</svg>
